<?xml version="1.0" encoding="iso-8859-1"?>
<!-- Generator: Adobe Illustrator 19.1.0, SVG Export Plug-In . SVG Version: 6.00 Build 0)  -->
<svg version="1.1" id="Capa_1" xmlns="http://www.w3.org/2000/svg" xmlns:xlink="http://www.w3.org/1999/xlink" x="0px" y="0px"
	 viewBox="0 0 479 479" style="enable-background:new 0 0 479 479;" xml:space="preserve">
<g>
	<g>
		<path d="M269.082,229.825c-8.4-4.6-17.2-8.1-26-11.8c-5.1-2.1-10-4.6-14.3-8c-8.5-6.8-6.8-17.7,3.1-22.1c2.8-1.2,5.7-1.6,8.8-1.8
			c11.5-0.6,22.4,1.5,32.8,6.5c5.2,2.5,6.9,1.7,8.6-3.7c1.8-5.7,3.4-11.5,5.1-17.2c1.1-3.9-0.3-6.4-3.9-8
			c-6.7-2.9-13.5-5.1-20.7-6.2c-9.4-1.5-9.4-1.5-9.4-10.9c-0.1-13.3-0.1-13.3-13.4-13.3c-1.9,0-3.9,0-5.8,0
			c-6.2,0.2-7.3,1.3-7.5,7.5c-0.1,2.8,0,5.6,0,8.5c0,8.3-0.1,8.2-8.1,11.1c-19.3,7-31.3,20.2-32.5,41.3
			c-1.1,18.7,8.6,31.3,23.9,40.4c9.4,5.7,19.9,9,29.9,13.4c3.9,1.7,7.6,3.7,10.9,6.4c9.6,7.9,7.8,21.2-3.6,26.2
			c-6.1,2.7-12.6,3.3-19.2,2.5c-10.2-1.3-20-4-29.2-8.8c-5.4-2.8-7-2.1-8.8,3.8c-1.6,5-3,10.1-4.4,15.3c-1.9,6.9-1.2,8.5,5.3,11.7
			c8.3,4,17.2,6.1,26.3,7.5c7.1,1.1,7.3,1.4,7.4,8.8c0,3.3,0.1,6.7,0.1,10c0.1,4.2,2.1,6.7,6.4,6.8c4.9,0.1,9.9,0.1,14.8,0
			c4-0.1,6.1-2.3,6.1-6.4c0-4.6,0.2-9.2,0-13.7c-0.2-4.7,1.8-7,6.3-8.2c10.3-2.8,19.1-8.4,25.9-16.6
			C302.882,277.925,295.682,244.525,269.082,229.825z"/>
		<path d="M444.982,180.225c0-31.1,0-62.1,0-93.2c0-7.7-2.8-10.3-10.4-11.3c-16.1-2-32.3-3.4-48.1-6.9
			c-50.2-11-94.9-34.4-136.8-63.6c-9.9-6.9-10.1-7-20.2-0.1c-55.4,38.4-114.8,66.3-183.3,70.7c-10.4,0.7-12.1,3-12.1,13.3
			c0,55.9-0.3,111.7,0.3,167.6c0.1,14,2,28.2,5.1,41.8c8.2,35.8,27.6,65.5,53.2,91.3c40.4,40.8,89.2,68.4,142.5,88.5
			c3,1.1,7.2,0.8,10.2-0.5c18.4-8,37.2-15.6,54.9-25c42.2-22.3,80-50.4,108.6-89.3c20.1-27.3,33.5-57.5,35-91.6
			C445.182,241.325,444.982,210.825,444.982,180.225z M239.482,394.725c-85.7,0-155.2-69.5-155.2-155.2s69.5-155.2,155.2-155.2
			s155.2,69.5,155.2,155.2S325.282,394.725,239.482,394.725z"/>
	</g>
</g>
<g>
</g>
<g>
</g>
<g>
</g>
<g>
</g>
<g>
</g>
<g>
</g>
<g>
</g>
<g>
</g>
<g>
</g>
<g>
</g>
<g>
</g>
<g>
</g>
<g>
</g>
<g>
</g>
<g>
</g>
</svg>
